<?xml version="1.0" encoding="utf-8"?>
<!-- Generator: Adobe Illustrator 25.2.0, SVG Export Plug-In . SVG Version: 6.00 Build 0)  -->
<svg version="1.1" id="Layer_1" xmlns="http://www.w3.org/2000/svg" xmlns:xlink="http://www.w3.org/1999/xlink" x="0px" y="0px"
	 viewBox="0 0 300 322" style="enable-background:new 0 0 300 322;" xml:space="preserve">
<style type="text/css">
	.st0{fill:#7AC142;}
	.st1{fill:#6EB43F;}
	.st2{fill:#FAA635;}
	.st3{fill:#F58026;}
</style>
<g>
	<path class="st0" d="M245.9,18.3c-0.2,0.2-4.4,3.2-9.4,6.8c-4.9,3.5-9.2,6.6-9.5,6.9s-5,3.9-10.5,8c-5.5,4-10.2,7.6-10.5,8
		c-0.3,0.3-4.3,3.6-8.9,7.3c-15.3,12.3-35.2,29.9-56.3,49.8c-8,7.7-15.1,13.9-15.6,13.9c-0.6,0-7.7-6.7-15.9-14.9
		C68.8,63.2,63.7,58,64.5,58c0.5,0,0-0.6-1.1-1.4c-4-3,0.1-2.9,12.9,0.3c12.4,3.1,26.4,7.4,46.9,14.2c4.8,1.6,9.2,2.9,9.8,2.9
		s5.5-2.6,10.8-5.7c30.3-17.7,90.5-48.2,95.5-48.3c0.7-0.1,2.3-0.7,3.7-1.5c1.4-0.7,2.7-1.1,2.9-0.9
		C246.1,17.8,246.1,18.1,245.9,18.3z"/>
	<path class="st0" d="M213,210c-16.8-17.3-33-33.9-36-37c-10.3-10.4-19.3-19.8-24.9-26c15.6-1.8,37-1.8,55.1,0.4
		c4.4,7.7,9.1,16.1,23.1,40.6c10,17.3,20.7,36.2,23.9,42c3.3,5.8,6.7,11.8,7.7,13.5c6.3,10.5,18.1,31.9,18.6,33.8
		C281.2,279.6,262.8,261.3,213,210z"/>
	<path class="st1" d="M274,30.2c-1.7,2.4-5.4,7.3-8.3,10.9c-5,6.4-19.3,25.2-26.7,35.4c-15.7,21.5-38,55.4-38,57.8
		c0,1.2,1.3,4.4,2.8,7.2c1.2,2.1,2.3,4,3.4,5.9c-18.1-2.2-39.5-2.2-55.1-0.4c-3.8-4.2-6.1-6.9-6.1-7.4c0-2.3,35.5-36.5,61-58.7
		c13.7-12,28.1-24.2,33.5-28.4c2.8-2.2,5.2-4.2,5.5-4.5c1.8-1.9,29.8-22,30.7-22C276.9,26,275.7,27.9,274,30.2z"/>
	<g>
		<path class="st2" d="M91.7,156c-2.3,2.5-6.4,7.2-9.2,10.5c-2.7,3.3-5.2,6.2-5.5,6.5c-1.3,1.2-24.5,32.2-29,38.6
			c-9,12.9-14.6,21.1-15,21.9c-0.3,0.5-4,6.3-8.2,12.8c-4.3,6.5-7.8,12-7.8,12.2c0,0.6-6.1,9.5-6.5,9.5s7-22.4,8.4-25.5
			c0.5-1.1,3.6-8.8,7-17c9.6-24,23.5-53.6,31.8-67.7c2.5-4.2,3.2-4.2-0.1-17c13.4-2.2,28.4-2.9,40.7-1.5c1.2,1.4,2,2.4,2.4,2.8
			C102.2,143.8,100.3,146.6,91.7,156z"/>
		<path class="st3" d="M98.3,139.3c-12.3-1.4-27.4-0.7-40.7,1.5c-0.9-3.7-2.2-8.6-3.9-14.9C48.6,106.8,45,86.7,45,78.1
			c0-5.3,0.1-5.4,1.8-3.5c1,1,2.9,3.5,4.2,5.4c1.3,1.9,2.9,4,3.5,4.7c0.5,0.6,3.5,4.4,6.5,8.4c9.4,12.3,26,33.1,32.3,40.4
			C95.1,135.6,97,137.6,98.3,139.3z"/>
	</g>
	<path class="st0" d="M260.5,305.2l-4.5-2.4c-9.2-4.9-18.5-10.1-19.5-10.8c-0.5-0.5-2.6-1.7-4.5-2.8c-1.9-1-16.3-9.5-32-18.7
		S170.2,253,168.5,252c-7.3-4.2-37.5-22.7-42.8-26.2c-6.9-4.5-9.3-4.7-15.5-1.1c-5.2,3-21.4,13.5-23.4,15.2c-0.7,0.6-6,4.6-11.8,8.9
		c-10.3,7.6-29,22.1-30,23.3c-1.9,2.1-21.4,17.9-22.1,17.9c-1.7,0,1.5-5.1,15.5-25.5c4.9-7.2,9.3-13.2,9.6-13.5s1.9-2.3,3.5-4.5
		c2.9-3.9,20.9-26.8,23-29.1c0.5-0.7,1.7-2,2.5-3.1c2.5-3.1,18.3-21.6,21.6-25.3c15-16.8,21.8-24,22.5-24c0.4,0,3.6,2.8,7,6.2
		c3.3,3.5,32.9,33.3,65.8,66.4c32.8,33,61.2,61.7,63.1,63.8L260.5,305.2z"/>
</g>
</svg>
